<?xml version="1.0" encoding="UTF-8" standalone="no"?>
<svg
   width="640"
   height="640"
   viewBox="0 0 640 640"
   fill="none"
   version="1.1"
   id="svg1"
   sodipodi:docname="telegram-logo.svg"
   inkscape:version="1.4 (e7c3feb1, 2024-10-09)"
   xmlns:inkscape="http://www.inkscape.org/namespaces/inkscape"
   xmlns:sodipodi="http://sodipodi.sourceforge.net/DTD/sodipodi-0.dtd"
   xmlns="http://www.w3.org/2000/svg"
   xmlns:svg="http://www.w3.org/2000/svg">
  <defs
     id="defs1" />
  <sodipodi:namedview
     id="namedview1"
     pagecolor="#ffffff"
     bordercolor="#000000"
     borderopacity="0.25"
     inkscape:showpageshadow="2"
     inkscape:pageopacity="0.0"
     inkscape:pagecheckerboard="0"
     inkscape:deskcolor="#d1d1d1"
     inkscape:zoom="0.075"
     inkscape:cx="320"
     inkscape:cy="313.33333"
     inkscape:window-width="1512"
     inkscape:window-height="848"
     inkscape:window-x="0"
     inkscape:window-y="38"
     inkscape:window-maximized="1"
     inkscape:current-layer="svg1" />
  <g
     id="g1"
     style="fill:#357acf;fill-opacity:1">
    <path
       d="M248 0C111 0 0 111 0 248C0 385 111 496 248 496C385 496 496 385 496 248C496 111 385 0 248 0C248 0 248 0 248 0ZM363 168.7C359.3 207.9 343.1 303.1 334.9 347C331.4 365.6 324.6 371.8 318 372.4C303.6 373.7 292.7 362.9 278.7 353.7C256.9 339.4 244.5 330.5 223.4 316.5C198.9 300.4 214.8 291.5 228.7 277C232.4 273.2 295.8 215.5 297 210.3C297.2 209.6 297.3 207.2 295.8 205.9C294.3 204.6 292.2 205.1 290.7 205.4C288.5 205.9 253.6 228.9 186.1 274.5C176.2 281.3 167.2 284.6 159.2 284.4C150.3 284.2 133.3 279.4 120.6 275.3C105.1 270.3 92.7 267.6 93.8 259C94.4 254.5 100.5 250 112.2 245.3C184.5 213.8 232.7 193 256.8 183C325.7 154.4 340 149.4 349.3 149.2C351.4 149.2 355.9 149.7 358.9 152.1C360.9 153.8 362.1 156.2 362.4 158.8C362.9 162 363 165.3 362.8 168.6C362.8 168.6 363 168.7 363 168.7Z"
       fill="#000000"
       transform="translate(72 72)"
       id="path1"
       style="fill:#357acf;fill-opacity:1" />
  </g>
</svg>
